<mxfile host="Electron" agent="Mozilla/5.0 (X11; Linux x86_64) AppleWebKit/537.36 (KHTML, like Gecko) draw.io/24.7.17 Chrome/128.0.6613.36 Electron/32.0.1 Safari/537.36" version="24.7.17">
  <diagram name="PÃ¡gina-1" id="0CzQWplsIsMGMoMQKzHa">
    <mxGraphModel dx="1816" dy="1769" grid="1" gridSize="10" guides="1" tooltips="1" connect="1" arrows="1" fold="1" page="1" pageScale="1" pageWidth="827" pageHeight="1169" math="0" shadow="0">
      <root>
        <mxCell id="0" />
        <mxCell id="1" parent="0" />
        <mxCell id="20QHVP0kfIHG6uQca2nZ-54" style="edgeStyle=orthogonalEdgeStyle;rounded=0;orthogonalLoop=1;jettySize=auto;html=1;exitX=0.5;exitY=0;exitDx=0;exitDy=0;entryX=0;entryY=0.5;entryDx=0;entryDy=0;endArrow=none;endFill=0;startArrow=classic;startFill=1;" parent="1" source="20QHVP0kfIHG6uQca2nZ-1" target="20QHVP0kfIHG6uQca2nZ-18" edge="1">
          <mxGeometry relative="1" as="geometry">
            <Array as="points">
              <mxPoint x="55" y="90" />
              <mxPoint x="315" y="90" />
              <mxPoint x="315" y="133" />
            </Array>
          </mxGeometry>
        </mxCell>
        <mxCell id="20QHVP0kfIHG6uQca2nZ-55" value="1, *" style="edgeLabel;html=1;align=center;verticalAlign=middle;resizable=0;points=[];fontSize=20;" parent="20QHVP0kfIHG6uQca2nZ-54" vertex="1" connectable="0">
          <mxGeometry x="-0.597" y="-2" relative="1" as="geometry">
            <mxPoint x="77" y="28" as="offset" />
          </mxGeometry>
        </mxCell>
        <mxCell id="20QHVP0kfIHG6uQca2nZ-59" style="edgeStyle=orthogonalEdgeStyle;rounded=0;orthogonalLoop=1;jettySize=auto;html=1;exitX=0.75;exitY=0;exitDx=0;exitDy=0;entryX=0;entryY=0.5;entryDx=0;entryDy=0;startArrow=classic;startFill=1;" parent="1" source="20QHVP0kfIHG6uQca2nZ-1" target="20QHVP0kfIHG6uQca2nZ-9" edge="1">
          <mxGeometry relative="1" as="geometry">
            <Array as="points">
              <mxPoint x="142" y="70" />
              <mxPoint x="280" y="70" />
              <mxPoint x="280" y="337" />
            </Array>
          </mxGeometry>
        </mxCell>
        <mxCell id="20QHVP0kfIHG6uQca2nZ-64" style="edgeStyle=orthogonalEdgeStyle;rounded=0;orthogonalLoop=1;jettySize=auto;html=1;exitX=0.25;exitY=0;exitDx=0;exitDy=0;endArrow=none;endFill=0;" parent="1" source="20QHVP0kfIHG6uQca2nZ-1" target="20QHVP0kfIHG6uQca2nZ-25" edge="1">
          <mxGeometry relative="1" as="geometry" />
        </mxCell>
        <mxCell id="20QHVP0kfIHG6uQca2nZ-1" value="Main" style="swimlane;fontStyle=1;align=center;verticalAlign=top;childLayout=stackLayout;horizontal=1;startSize=26;horizontalStack=0;resizeParent=1;resizeParentMax=0;resizeLast=0;collapsible=1;marginBottom=0;whiteSpace=wrap;html=1;fillColor=#ffcccc;strokeColor=#36393d;" parent="1" vertex="1">
          <mxGeometry x="-120" y="140" width="350" height="112" as="geometry" />
        </mxCell>
        <mxCell id="20QHVP0kfIHG6uQca2nZ-2" value="- s3Client: AmazonS3" style="text;strokeColor=none;fillColor=none;align=left;verticalAlign=top;spacingLeft=4;spacingRight=4;overflow=hidden;rotatable=0;points=[[0,0.5],[1,0.5]];portConstraint=eastwest;whiteSpace=wrap;html=1;" parent="20QHVP0kfIHG6uQca2nZ-1" vertex="1">
          <mxGeometry y="26" width="350" height="26" as="geometry" />
        </mxCell>
        <mxCell id="20QHVP0kfIHG6uQca2nZ-5" value="- DESTINATION_BUCKET&lt;span style=&quot;background-color: initial;&quot;&gt;: AmazonS3&lt;/span&gt;" style="text;strokeColor=none;fillColor=none;align=left;verticalAlign=top;spacingLeft=4;spacingRight=4;overflow=hidden;rotatable=0;points=[[0,0.5],[1,0.5]];portConstraint=eastwest;whiteSpace=wrap;html=1;" parent="20QHVP0kfIHG6uQca2nZ-1" vertex="1">
          <mxGeometry y="52" width="350" height="26" as="geometry" />
        </mxCell>
        <mxCell id="20QHVP0kfIHG6uQca2nZ-3" value="" style="line;strokeWidth=1;fillColor=none;align=left;verticalAlign=middle;spacingTop=-1;spacingLeft=3;spacingRight=3;rotatable=0;labelPosition=right;points=[];portConstraint=eastwest;strokeColor=inherit;" parent="20QHVP0kfIHG6uQca2nZ-1" vertex="1">
          <mxGeometry y="78" width="350" height="8" as="geometry" />
        </mxCell>
        <mxCell id="20QHVP0kfIHG6uQca2nZ-4" value="+ handleRequest(s3 Event S3 Event, context Context): String" style="text;strokeColor=none;fillColor=none;align=left;verticalAlign=top;spacingLeft=4;spacingRight=4;overflow=hidden;rotatable=0;points=[[0,0.5],[1,0.5]];portConstraint=eastwest;whiteSpace=wrap;html=1;" parent="20QHVP0kfIHG6uQca2nZ-1" vertex="1">
          <mxGeometry y="86" width="350" height="26" as="geometry" />
        </mxCell>
        <mxCell id="20QHVP0kfIHG6uQca2nZ-6" value="Mapper" style="swimlane;fontStyle=1;align=center;verticalAlign=top;childLayout=stackLayout;horizontal=1;startSize=26;horizontalStack=0;resizeParent=1;resizeParentMax=0;resizeLast=0;collapsible=1;marginBottom=0;whiteSpace=wrap;html=1;fillColor=#ffcccc;strokeColor=#36393d;" parent="1" vertex="1">
          <mxGeometry x="395" y="290" width="370" height="86" as="geometry" />
        </mxCell>
        <mxCell id="20QHVP0kfIHG6uQca2nZ-8" value="" style="line;strokeWidth=1;fillColor=none;align=left;verticalAlign=middle;spacingTop=-1;spacingLeft=3;spacingRight=3;rotatable=0;labelPosition=right;points=[];portConstraint=eastwest;strokeColor=inherit;" parent="20QHVP0kfIHG6uQca2nZ-6" vertex="1">
          <mxGeometry y="26" width="370" height="8" as="geometry" />
        </mxCell>
        <mxCell id="20QHVP0kfIHG6uQca2nZ-9" value="+ Relatoriosemanal (inputStream InputStream): map" style="text;strokeColor=none;fillColor=none;align=left;verticalAlign=top;spacingLeft=4;spacingRight=4;overflow=hidden;rotatable=0;points=[[0,0.5],[1,0.5]];portConstraint=eastwest;whiteSpace=wrap;html=1;" parent="20QHVP0kfIHG6uQca2nZ-6" vertex="1">
          <mxGeometry y="34" width="370" height="26" as="geometry" />
        </mxCell>
        <mxCell id="20QHVP0kfIHG6uQca2nZ-10" value="- getDataFormat (linha String, separador String): DataFormat" style="text;strokeColor=none;fillColor=none;align=left;verticalAlign=top;spacingLeft=4;spacingRight=4;overflow=hidden;rotatable=0;points=[[0,0.5],[1,0.5]];portConstraint=eastwest;whiteSpace=wrap;html=1;" parent="20QHVP0kfIHG6uQca2nZ-6" vertex="1">
          <mxGeometry y="60" width="370" height="26" as="geometry" />
        </mxCell>
        <mxCell id="20QHVP0kfIHG6uQca2nZ-11" value="RelatorioSemana" style="swimlane;fontStyle=1;align=center;verticalAlign=top;childLayout=stackLayout;horizontal=1;startSize=26;horizontalStack=0;resizeParent=1;resizeParentMax=0;resizeLast=0;collapsible=1;marginBottom=0;whiteSpace=wrap;html=1;fillColor=#ffcccc;strokeColor=#36393d;" parent="1" vertex="1">
          <mxGeometry x="400" y="-10" width="360" height="268" as="geometry" />
        </mxCell>
        <mxCell id="20QHVP0kfIHG6uQca2nZ-15" value="- picoCpu: OptionalDouble" style="text;strokeColor=none;fillColor=none;align=left;verticalAlign=top;spacingLeft=4;spacingRight=4;overflow=hidden;rotatable=0;points=[[0,0.5],[1,0.5]];portConstraint=eastwest;whiteSpace=wrap;html=1;" parent="20QHVP0kfIHG6uQca2nZ-11" vertex="1">
          <mxGeometry y="26" width="360" height="26" as="geometry" />
        </mxCell>
        <mxCell id="20QHVP0kfIHG6uQca2nZ-12" value="- mediaCpu: Double" style="text;strokeColor=none;fillColor=none;align=left;verticalAlign=top;spacingLeft=4;spacingRight=4;overflow=hidden;rotatable=0;points=[[0,0.5],[1,0.5]];portConstraint=eastwest;whiteSpace=wrap;html=1;" parent="20QHVP0kfIHG6uQca2nZ-11" vertex="1">
          <mxGeometry y="52" width="360" height="26" as="geometry" />
        </mxCell>
        <mxCell id="20QHVP0kfIHG6uQca2nZ-16" value="- picoRam: OptionalDouble" style="text;strokeColor=none;fillColor=none;align=left;verticalAlign=top;spacingLeft=4;spacingRight=4;overflow=hidden;rotatable=0;points=[[0,0.5],[1,0.5]];portConstraint=eastwest;whiteSpace=wrap;html=1;" parent="20QHVP0kfIHG6uQca2nZ-11" vertex="1">
          <mxGeometry y="78" width="360" height="26" as="geometry" />
        </mxCell>
        <mxCell id="20QHVP0kfIHG6uQca2nZ-17" value="- mediaRam: Double" style="text;strokeColor=none;fillColor=none;align=left;verticalAlign=top;spacingLeft=4;spacingRight=4;overflow=hidden;rotatable=0;points=[[0,0.5],[1,0.5]];portConstraint=eastwest;whiteSpace=wrap;html=1;" parent="20QHVP0kfIHG6uQca2nZ-11" vertex="1">
          <mxGeometry y="104" width="360" height="26" as="geometry" />
        </mxCell>
        <mxCell id="20QHVP0kfIHG6uQca2nZ-18" value="- mediaDisc: Long" style="text;strokeColor=none;fillColor=none;align=left;verticalAlign=top;spacingLeft=4;spacingRight=4;overflow=hidden;rotatable=0;points=[[0,0.5],[1,0.5]];portConstraint=eastwest;whiteSpace=wrap;html=1;" parent="20QHVP0kfIHG6uQca2nZ-11" vertex="1">
          <mxGeometry y="130" width="360" height="26" as="geometry" />
        </mxCell>
        <mxCell id="20QHVP0kfIHG6uQca2nZ-13" value="" style="line;strokeWidth=1;fillColor=none;align=left;verticalAlign=middle;spacingTop=-1;spacingLeft=3;spacingRight=3;rotatable=0;labelPosition=right;points=[];portConstraint=eastwest;strokeColor=inherit;" parent="20QHVP0kfIHG6uQca2nZ-11" vertex="1">
          <mxGeometry y="156" width="360" height="8" as="geometry" />
        </mxCell>
        <mxCell id="20QHVP0kfIHG6uQca2nZ-19" value="+ setPicoCpu(Double mediaCpu): void" style="text;strokeColor=none;fillColor=none;align=left;verticalAlign=top;spacingLeft=4;spacingRight=4;overflow=hidden;rotatable=0;points=[[0,0.5],[1,0.5]];portConstraint=eastwest;whiteSpace=wrap;html=1;" parent="20QHVP0kfIHG6uQca2nZ-11" vertex="1">
          <mxGeometry y="164" width="360" height="26" as="geometry" />
        </mxCell>
        <mxCell id="20QHVP0kfIHG6uQca2nZ-22" value="+ setPicoRam(Double picoRam): void" style="text;strokeColor=none;fillColor=none;align=left;verticalAlign=top;spacingLeft=4;spacingRight=4;overflow=hidden;rotatable=0;points=[[0,0.5],[1,0.5]];portConstraint=eastwest;whiteSpace=wrap;html=1;" parent="20QHVP0kfIHG6uQca2nZ-11" vertex="1">
          <mxGeometry y="190" width="360" height="26" as="geometry" />
        </mxCell>
        <mxCell id="20QHVP0kfIHG6uQca2nZ-23" value="+ setMediaRam(Double mediaRam) : void" style="text;strokeColor=none;fillColor=none;align=left;verticalAlign=top;spacingLeft=4;spacingRight=4;overflow=hidden;rotatable=0;points=[[0,0.5],[1,0.5]];portConstraint=eastwest;whiteSpace=wrap;html=1;" parent="20QHVP0kfIHG6uQca2nZ-11" vertex="1">
          <mxGeometry y="216" width="360" height="26" as="geometry" />
        </mxCell>
        <mxCell id="20QHVP0kfIHG6uQca2nZ-24" value="+ setMediaDisc(Double mediaDisc) : void" style="text;strokeColor=none;fillColor=none;align=left;verticalAlign=top;spacingLeft=4;spacingRight=4;overflow=hidden;rotatable=0;points=[[0,0.5],[1,0.5]];portConstraint=eastwest;whiteSpace=wrap;html=1;" parent="20QHVP0kfIHG6uQca2nZ-11" vertex="1">
          <mxGeometry y="242" width="360" height="26" as="geometry" />
        </mxCell>
        <mxCell id="20QHVP0kfIHG6uQca2nZ-25" value="FindObject" style="swimlane;fontStyle=1;align=center;verticalAlign=top;childLayout=stackLayout;horizontal=1;startSize=26;horizontalStack=0;resizeParent=1;resizeParentMax=0;resizeLast=0;collapsible=1;marginBottom=0;whiteSpace=wrap;html=1;fillColor=#ffcccc;strokeColor=#36393d;" parent="1" vertex="1">
          <mxGeometry x="-200" y="-70" width="530" height="60" as="geometry" />
        </mxCell>
        <mxCell id="20QHVP0kfIHG6uQca2nZ-27" value="" style="line;strokeWidth=1;fillColor=none;align=left;verticalAlign=middle;spacingTop=-1;spacingLeft=3;spacingRight=3;rotatable=0;labelPosition=right;points=[];portConstraint=eastwest;strokeColor=inherit;" parent="20QHVP0kfIHG6uQca2nZ-25" vertex="1">
          <mxGeometry y="26" width="530" height="8" as="geometry" />
        </mxCell>
        <mxCell id="20QHVP0kfIHG6uQca2nZ-28" value="+ InputStream(objects List&amp;lt;S3ObjectSummary&amp;gt;, client Amazon S3, buckName S3): S3Object" style="text;strokeColor=none;fillColor=none;align=left;verticalAlign=top;spacingLeft=4;spacingRight=4;overflow=hidden;rotatable=0;points=[[0,0.5],[1,0.5]];portConstraint=eastwest;whiteSpace=wrap;html=1;" parent="20QHVP0kfIHG6uQca2nZ-25" vertex="1">
          <mxGeometry y="34" width="530" height="26" as="geometry" />
        </mxCell>
        <mxCell id="20QHVP0kfIHG6uQca2nZ-29" value="DataFormat" style="swimlane;fontStyle=1;align=center;verticalAlign=top;childLayout=stackLayout;horizontal=1;startSize=26;horizontalStack=0;resizeParent=1;resizeParentMax=0;resizeLast=0;collapsible=1;marginBottom=0;whiteSpace=wrap;html=1;fillColor=#ffcccc;strokeColor=#36393d;" parent="1" vertex="1">
          <mxGeometry x="640" y="-290" width="160" height="242" as="geometry" />
        </mxCell>
        <mxCell id="20QHVP0kfIHG6uQca2nZ-30" value="- idDados: Integer" style="text;strokeColor=none;fillColor=none;align=left;verticalAlign=top;spacingLeft=4;spacingRight=4;overflow=hidden;rotatable=0;points=[[0,0.5],[1,0.5]];portConstraint=eastwest;whiteSpace=wrap;html=1;" parent="20QHVP0kfIHG6uQca2nZ-29" vertex="1">
          <mxGeometry y="26" width="160" height="26" as="geometry" />
        </mxCell>
        <mxCell id="20QHVP0kfIHG6uQca2nZ-33" value="- dataHora: String" style="text;strokeColor=none;fillColor=none;align=left;verticalAlign=top;spacingLeft=4;spacingRight=4;overflow=hidden;rotatable=0;points=[[0,0.5],[1,0.5]];portConstraint=eastwest;whiteSpace=wrap;html=1;" parent="20QHVP0kfIHG6uQca2nZ-29" vertex="1">
          <mxGeometry y="52" width="160" height="26" as="geometry" />
        </mxCell>
        <mxCell id="20QHVP0kfIHG6uQca2nZ-34" value="- percCpu: Double" style="text;strokeColor=none;fillColor=none;align=left;verticalAlign=top;spacingLeft=4;spacingRight=4;overflow=hidden;rotatable=0;points=[[0,0.5],[1,0.5]];portConstraint=eastwest;whiteSpace=wrap;html=1;" parent="20QHVP0kfIHG6uQca2nZ-29" vertex="1">
          <mxGeometry y="78" width="160" height="26" as="geometry" />
        </mxCell>
        <mxCell id="20QHVP0kfIHG6uQca2nZ-35" value="- tempoInativo: Double" style="text;strokeColor=none;fillColor=none;align=left;verticalAlign=top;spacingLeft=4;spacingRight=4;overflow=hidden;rotatable=0;points=[[0,0.5],[1,0.5]];portConstraint=eastwest;whiteSpace=wrap;html=1;" parent="20QHVP0kfIHG6uQca2nZ-29" vertex="1">
          <mxGeometry y="104" width="160" height="26" as="geometry" />
        </mxCell>
        <mxCell id="20QHVP0kfIHG6uQca2nZ-36" value="- percRam: Double" style="text;strokeColor=none;fillColor=none;align=left;verticalAlign=top;spacingLeft=4;spacingRight=4;overflow=hidden;rotatable=0;points=[[0,0.5],[1,0.5]];portConstraint=eastwest;whiteSpace=wrap;html=1;" parent="20QHVP0kfIHG6uQca2nZ-29" vertex="1">
          <mxGeometry y="130" width="160" height="26" as="geometry" />
        </mxCell>
        <mxCell id="20QHVP0kfIHG6uQca2nZ-37" value="- percDisc: Double" style="text;strokeColor=none;fillColor=none;align=left;verticalAlign=top;spacingLeft=4;spacingRight=4;overflow=hidden;rotatable=0;points=[[0,0.5],[1,0.5]];portConstraint=eastwest;whiteSpace=wrap;html=1;" parent="20QHVP0kfIHG6uQca2nZ-29" vertex="1">
          <mxGeometry y="156" width="160" height="26" as="geometry" />
        </mxCell>
        <mxCell id="20QHVP0kfIHG6uQca2nZ-38" value="- usedDisc: Long" style="text;strokeColor=none;fillColor=none;align=left;verticalAlign=top;spacingLeft=4;spacingRight=4;overflow=hidden;rotatable=0;points=[[0,0.5],[1,0.5]];portConstraint=eastwest;whiteSpace=wrap;html=1;" parent="20QHVP0kfIHG6uQca2nZ-29" vertex="1">
          <mxGeometry y="182" width="160" height="26" as="geometry" />
        </mxCell>
        <mxCell id="20QHVP0kfIHG6uQca2nZ-39" value="- fkNotebook: Integer" style="text;strokeColor=none;fillColor=none;align=left;verticalAlign=top;spacingLeft=4;spacingRight=4;overflow=hidden;rotatable=0;points=[[0,0.5],[1,0.5]];portConstraint=eastwest;whiteSpace=wrap;html=1;" parent="20QHVP0kfIHG6uQca2nZ-29" vertex="1">
          <mxGeometry y="208" width="160" height="26" as="geometry" />
        </mxCell>
        <mxCell id="20QHVP0kfIHG6uQca2nZ-31" value="" style="line;strokeWidth=1;fillColor=none;align=left;verticalAlign=middle;spacingTop=-1;spacingLeft=3;spacingRight=3;rotatable=0;labelPosition=right;points=[];portConstraint=eastwest;strokeColor=inherit;" parent="20QHVP0kfIHG6uQca2nZ-29" vertex="1">
          <mxGeometry y="234" width="160" height="8" as="geometry" />
        </mxCell>
        <mxCell id="20QHVP0kfIHG6uQca2nZ-71" style="edgeStyle=orthogonalEdgeStyle;rounded=0;orthogonalLoop=1;jettySize=auto;html=1;exitX=1;exitY=0.5;exitDx=0;exitDy=0;entryX=0.5;entryY=0;entryDx=0;entryDy=0;endArrow=none;endFill=0;" parent="1" source="20QHVP0kfIHG6uQca2nZ-50" target="20QHVP0kfIHG6uQca2nZ-29" edge="1">
          <mxGeometry relative="1" as="geometry" />
        </mxCell>
        <mxCell id="20QHVP0kfIHG6uQca2nZ-50" value="CsvWriter" style="swimlane;fontStyle=1;align=center;verticalAlign=top;childLayout=stackLayout;horizontal=1;startSize=26;horizontalStack=0;resizeParent=1;resizeParentMax=0;resizeLast=0;collapsible=1;marginBottom=0;whiteSpace=wrap;html=1;fillColor=#ffcccc;strokeColor=#36393d;" parent="1" vertex="1">
          <mxGeometry x="32.5" y="-280" width="475" height="60" as="geometry" />
        </mxCell>
        <mxCell id="20QHVP0kfIHG6uQca2nZ-52" value="" style="line;strokeWidth=1;fillColor=none;align=left;verticalAlign=middle;spacingTop=-1;spacingLeft=3;spacingRight=3;rotatable=0;labelPosition=right;points=[];portConstraint=eastwest;strokeColor=inherit;" parent="20QHVP0kfIHG6uQca2nZ-50" vertex="1">
          <mxGeometry y="26" width="475" height="8" as="geometry" />
        </mxCell>
        <mxCell id="20QHVP0kfIHG6uQca2nZ-53" value="+ ByteArrayOutputStream(relatorioSemana RelatorioSemanal): writeCsv1" style="text;strokeColor=none;fillColor=none;align=left;verticalAlign=top;spacingLeft=4;spacingRight=4;overflow=hidden;rotatable=0;points=[[0,0.5],[1,0.5]];portConstraint=eastwest;whiteSpace=wrap;html=1;" parent="20QHVP0kfIHG6uQca2nZ-50" vertex="1">
          <mxGeometry y="34" width="475" height="26" as="geometry" />
        </mxCell>
        <mxCell id="20QHVP0kfIHG6uQca2nZ-56" value="1, 1" style="edgeLabel;html=1;align=center;verticalAlign=middle;resizable=0;points=[];fontSize=20;" parent="1" vertex="1" connectable="0">
          <mxGeometry x="89.99660984210875" y="69.99761904761904" as="geometry">
            <mxPoint x="284" y="31" as="offset" />
          </mxGeometry>
        </mxCell>
        <mxCell id="20QHVP0kfIHG6uQca2nZ-60" value="1, 1" style="edgeLabel;html=1;align=center;verticalAlign=middle;resizable=0;points=[];fontSize=20;" parent="1" vertex="1" connectable="0">
          <mxGeometry x="89.99660984210875" y="279.997619047619" as="geometry">
            <mxPoint x="284" y="31" as="offset" />
          </mxGeometry>
        </mxCell>
        <mxCell id="20QHVP0kfIHG6uQca2nZ-61" style="edgeStyle=orthogonalEdgeStyle;rounded=0;orthogonalLoop=1;jettySize=auto;html=1;exitX=0.5;exitY=0;exitDx=0;exitDy=0;entryX=0.509;entryY=0.998;entryDx=0;entryDy=0;entryPerimeter=0;endArrow=none;endFill=0;" parent="1" source="20QHVP0kfIHG6uQca2nZ-6" target="20QHVP0kfIHG6uQca2nZ-24" edge="1">
          <mxGeometry relative="1" as="geometry">
            <Array as="points">
              <mxPoint x="580" y="258" />
            </Array>
          </mxGeometry>
        </mxCell>
        <mxCell id="20QHVP0kfIHG6uQca2nZ-62" value="1, 1" style="edgeLabel;html=1;align=center;verticalAlign=middle;resizable=0;points=[];fontSize=20;" parent="1" vertex="1" connectable="0">
          <mxGeometry x="269.99660984210874" y="239.99761904761903" as="geometry">
            <mxPoint x="284" y="31" as="offset" />
          </mxGeometry>
        </mxCell>
        <mxCell id="20QHVP0kfIHG6uQca2nZ-63" value="1, 1" style="edgeLabel;html=1;align=center;verticalAlign=middle;resizable=0;points=[];fontSize=20;" parent="1" vertex="1" connectable="0">
          <mxGeometry x="329.99660984210874" y="239.99761904761903" as="geometry">
            <mxPoint x="284" y="31" as="offset" />
          </mxGeometry>
        </mxCell>
        <mxCell id="20QHVP0kfIHG6uQca2nZ-65" value="1, *" style="edgeLabel;html=1;align=center;verticalAlign=middle;resizable=0;points=[];fontSize=20;" parent="1" vertex="1" connectable="0">
          <mxGeometry x="67.03996000004008" y="112" as="geometry">
            <mxPoint x="-70" y="6" as="offset" />
          </mxGeometry>
        </mxCell>
        <mxCell id="20QHVP0kfIHG6uQca2nZ-66" value="1, 1" style="edgeLabel;html=1;align=center;verticalAlign=middle;resizable=0;points=[];fontSize=20;" parent="1" vertex="1" connectable="0">
          <mxGeometry x="109.99996000004009" as="geometry">
            <mxPoint x="-70" y="6" as="offset" />
          </mxGeometry>
        </mxCell>
        <mxCell id="20QHVP0kfIHG6uQca2nZ-67" style="edgeStyle=orthogonalEdgeStyle;rounded=0;orthogonalLoop=1;jettySize=auto;html=1;exitX=0.5;exitY=0;exitDx=0;exitDy=0;entryX=0.506;entryY=0.985;entryDx=0;entryDy=0;entryPerimeter=0;endArrow=none;endFill=0;" parent="1" source="20QHVP0kfIHG6uQca2nZ-25" target="20QHVP0kfIHG6uQca2nZ-53" edge="1">
          <mxGeometry relative="1" as="geometry" />
        </mxCell>
        <mxCell id="20QHVP0kfIHG6uQca2nZ-68" value="1, 1" style="edgeLabel;html=1;align=center;verticalAlign=middle;resizable=0;points=[];fontSize=20;" parent="1" vertex="1" connectable="0">
          <mxGeometry x="379.99996000004006" y="-200" as="geometry">
            <mxPoint x="-70" y="6" as="offset" />
          </mxGeometry>
        </mxCell>
        <mxCell id="20QHVP0kfIHG6uQca2nZ-69" value="1, 1" style="edgeLabel;html=1;align=center;verticalAlign=middle;resizable=0;points=[];fontSize=20;" parent="1" vertex="1" connectable="0">
          <mxGeometry x="159.99996000004006" y="-100" as="geometry">
            <mxPoint x="-70" y="6" as="offset" />
          </mxGeometry>
        </mxCell>
        <mxCell id="20QHVP0kfIHG6uQca2nZ-70" value="1, 1" style="edgeLabel;html=1;align=center;verticalAlign=middle;resizable=0;points=[];fontSize=20;" parent="1" vertex="1" connectable="0">
          <mxGeometry x="29.999960000040062" y="160" as="geometry">
            <mxPoint x="51" y="-51" as="offset" />
          </mxGeometry>
        </mxCell>
        <mxCell id="20QHVP0kfIHG6uQca2nZ-72" value="1, 1" style="edgeLabel;html=1;align=center;verticalAlign=middle;resizable=0;points=[];fontSize=20;" parent="1" vertex="1" connectable="0">
          <mxGeometry x="599.9999600000401" y="-270" as="geometry">
            <mxPoint x="-70" y="6" as="offset" />
          </mxGeometry>
        </mxCell>
        <mxCell id="20QHVP0kfIHG6uQca2nZ-73" value="1, 1" style="edgeLabel;html=1;align=center;verticalAlign=middle;resizable=0;points=[];fontSize=20;" parent="1" vertex="1" connectable="0">
          <mxGeometry x="779.9999600000401" y="-350" as="geometry">
            <mxPoint x="-70" y="6" as="offset" />
          </mxGeometry>
        </mxCell>
      </root>
    </mxGraphModel>
  </diagram>
</mxfile>
